<?xml version="1.0" standalone="no"?>
<!DOCTYPE svg PUBLIC "-//W3C//DTD SVG 20010904//EN"
 "http://www.w3.org/TR/2001/REC-SVG-20010904/DTD/svg10.dtd">
<svg version="1.0" xmlns="http://www.w3.org/2000/svg"
 width="1920.000000pt" height="1080.000000pt" viewBox="0 0 1920.000000 1080.000000"
 preserveAspectRatio="xMidYMid meet">

<g transform="translate(0.000000,1080.000000) scale(0.100000,-0.100000)"
fill="#000000" stroke="none">
<path d="M12610 10765 l0 -25 -1057 0 -1057 0 -346 -345 -345 -345 -1803 0
-1802 0 0 25 c0 25 -1 25 -90 25 l-90 0 0 -95 0 -95 89 0 90 0 3 28 3 27 1820
3 1820 2 345 345 345 345 1037 0 1038 0 0 -30 0 -30 93 0 92 0 -3 95 -3 95
-90 0 c-88 0 -89 0 -89 -25z"/>
<path d="M7710 10575 l0 -95 90 0 90 0 0 30 0 30 910 0 910 0 0 -30 0 -30 90
0 90 0 0 95 0 95 -90 0 c-89 0 -90 0 -90 -25 l0 -25 -910 0 -910 0 0 25 c0 25
-1 25 -90 25 l-90 0 0 -95z"/>
<path d="M11150 10005 l0 -95 89 0 90 0 3 28 3 27 1145 0 1145 0 3 -27 c3 -21
9 -27 30 -30 l27 -3 0 -1145 0 -1145 -27 -3 -28 -3 0 -90 0 -89 95 0 96 0 -3
93 c-3 89 -4 92 -25 90 l-23 -3 0 1150 0 1150 25 0 c25 0 25 0 25 95 l0 95
-95 0 c-95 0 -95 0 -95 -25 l0 -25 -1150 0 -1150 0 0 25 c0 25 -1 25 -90 25
l-90 0 0 -95z"/>
<path d="M8695 9669 c-131 -13 -369 -48 -447 -65 -112 -26 -108 -12 -108 -366
0 -230 -3 -299 -12 -302 -164 -48 -373 -121 -483 -168 -130 -55 -358 -169
-380 -189 -5 -6 -92 74 -220 200 -244 242 -250 246 -335 193 -27 -17 -101 -69
-164 -117 -352 -264 -715 -636 -964 -987 -71 -100 -85 -129 -76 -166 4 -17 85
-106 216 -238 l209 -210 -52 -95 c-106 -192 -218 -462 -281 -679 l-32 -110
-283 0 c-293 0 -329 -4 -361 -43 -17 -20 -47 -173 -73 -371 -38 -291 -37 -782
2 -1061 17 -121 50 -306 58 -328 5 -12 19 -31 31 -42 21 -19 38 -20 326 -23
257 -2 304 -5 304 -17 0 -8 26 -95 59 -192 66 -199 163 -428 246 -577 l55
-100 -208 -210 c-131 -132 -212 -221 -216 -238 -8 -36 5 -68 71 -162 265 -380
672 -787 1064 -1064 93 -65 123 -78 167 -67 17 4 103 82 233 212 l207 205 203
-100 c207 -102 398 -178 569 -227 52 -15 101 -29 108 -31 9 -3 12 -72 12 -304
l0 -302 28 -27 c22 -23 45 -31 119 -45 507 -93 1029 -95 1533 -5 63 11 122 25
132 30 40 21 43 45 48 353 l5 299 110 32 c233 70 499 179 675 279 l95 54 216
-214 c264 -262 235 -253 408 -131 386 273 810 702 1064 1075 59 86 68 121 46
165 -7 12 -100 111 -208 220 -108 109 -196 201 -196 205 0 4 39 84 86 177 97
194 169 371 228 563 23 74 41 135 41 138 0 2 132 4 293 4 382 0 357 -14 396
225 69 422 79 805 30 1210 -16 136 -57 362 -69 386 -24 44 -61 49 -364 49
l-284 0 -21 73 c-65 221 -168 475 -273 676 l-70 133 211 212 c205 207 211 214
211 253 0 45 -17 73 -156 258 -258 344 -630 704 -991 958 -92 65 -127 76 -169
54 -16 -9 -118 -105 -227 -214 l-198 -199 -192 96 c-208 104 -408 184 -584
234 l-113 31 0 293 c0 320 -3 339 -57 361 -39 15 -161 38 -343 62 -126 18
-217 22 -485 24 -181 2 -370 -1 -420 -6z m661 -199 c187 -15 427 -49 436 -63
4 -6 7 -142 7 -302 l1 -290 28 -26 c19 -17 59 -34 113 -48 287 -76 586 -198
841 -345 99 -57 123 -64 161 -45 12 6 113 101 223 211 l202 201 33 -23 c219
-152 528 -437 743 -684 89 -103 234 -289 243 -314 4 -8 -71 -91 -201 -221
-203 -204 -206 -208 -206 -250 0 -33 12 -62 56 -137 143 -244 250 -508 348
-866 11 -39 26 -64 47 -82 l31 -26 292 0 293 0 11 -62 c40 -223 46 -312 46
-663 0 -350 -5 -423 -45 -662 l-11 -62 -293 -3 c-280 -3 -295 -4 -322 -24 -15
-11 -33 -38 -40 -60 -6 -21 -30 -102 -53 -179 -71 -239 -172 -478 -301 -707
-67 -119 -75 -158 -41 -205 11 -15 104 -110 206 -211 102 -101 186 -187 186
-191 0 -12 -120 -172 -204 -271 -200 -239 -566 -580 -769 -719 l-49 -33 -206
205 c-158 156 -215 206 -240 212 -28 6 -49 -3 -160 -63 -265 -146 -465 -231
-707 -302 -77 -23 -158 -47 -179 -53 -75 -23 -76 -25 -79 -357 l-2 -295 -65
-12 c-200 -37 -347 -48 -660 -48 -309 0 -386 6 -622 41 l-108 16 0 290 c0 235
-3 294 -15 318 -16 31 -43 43 -195 85 -132 36 -303 98 -450 162 -124 54 -175
80 -343 176 -124 71 -115 75 -362 -173 -110 -110 -204 -200 -208 -200 -13 0
-154 108 -286 219 -227 191 -549 532 -693 736 l-49 69 208 208 208 208 -1 48
c0 38 -9 62 -49 127 -58 97 -170 327 -218 450 -33 84 -88 256 -137 422 -32
111 -18 107 -370 113 l-295 5 -21 150 c-26 180 -44 414 -44 568 0 221 29 535
66 705 l4 22 286 0 c304 0 329 4 354 51 6 11 26 75 45 142 77 278 178 524 314
762 41 70 65 125 68 153 l6 42 -212 213 -211 213 32 45 c147 205 472 557 681
737 67 58 251 202 287 225 25 16 25 16 232 -188 169 -166 214 -205 243 -211
31 -5 50 2 153 59 304 168 508 251 873 351 97 27 93 14 99 359 l5 301 35 8
c43 9 356 47 425 51 120 8 433 6 551 -3z"/>
<path d="M8730 7584 c-151 -24 -178 -31 -334 -81 -1092 -351 -1721 -1496
-1436 -2612 150 -587 555 -1101 1091 -1383 105 -55 312 -138 434 -172 346 -99
808 -100 1155 -3 611 171 1106 580 1381 1141 409 834 247 1830 -405 2489 -299
302 -693 518 -1098 601 -252 52 -545 60 -788 20z m248 -791 l-3 -458 -283 -1
-283 -2 7 32 c15 70 95 298 140 401 93 207 229 382 354 453 30 18 58 32 63 32
4 0 6 -206 5 -457z m289 427 c151 -87 288 -275 398 -550 39 -97 105 -304 105
-328 0 -11 -509 -16 -550 -5 -20 5 -20 12 -20 459 0 250 3 454 8 454 4 0 30
-14 59 -30z m-780 -117 c-104 -152 -202 -380 -275 -636 l-38 -132 -332 -2
c-183 0 -332 1 -332 2 0 13 84 143 145 223 78 103 240 267 342 345 78 60 198
134 293 182 77 39 243 106 248 100 2 -1 -21 -38 -51 -82z m1378 -7 c190 -91
319 -181 484 -341 105 -101 221 -246 286 -356 19 -33 35 -61 35 -63 0 -7 -646
-5 -657 2 -6 4 -19 36 -28 72 -67 264 -172 515 -289 690 -31 45 -56 85 -56 86
0 8 122 -41 225 -90z m-1739 -1038 c-49 -390 -49 -863 0 -1165 l7 -43 -370 0
-370 0 -31 108 c-49 168 -63 264 -69 449 -8 239 15 406 84 621 l27 82 364 0
365 0 -7 -52z m854 -578 l0 -630 -310 0 -310 0 -4 23 c-57 262 -59 818 -5
1165 l12 72 308 0 309 0 0 -630z m844 603 c55 -284 61 -798 13 -1143 l-12 -85
-313 -3 -312 -2 0 630 0 630 309 0 309 0 6 -27z m985 -75 c102 -330 109 -674
20 -1007 -17 -63 -35 -123 -40 -133 -9 -17 -32 -18 -375 -18 l-365 0 5 33 c50
303 55 764 11 1092 -8 61 -15 116 -15 123 0 9 79 12 363 12 l364 0 32 -102z
m-2612 -1481 c64 -262 166 -506 287 -687 31 -46 54 -85 52 -87 -2 -3 -61 19
-131 48 -366 150 -677 423 -879 772 l-28 47 339 0 338 0 22 -93z m783 -372 c0
-383 -2 -465 -13 -465 -27 0 -133 78 -192 141 -102 109 -182 244 -259 436 -42
105 -106 310 -106 339 0 12 52 14 285 14 l285 0 0 -465z m775 378 c-77 -287
-211 -557 -349 -701 -60 -64 -166 -142 -193 -142 -11 0 -13 82 -13 465 l0 465
289 0 290 0 -24 -87z m914 65 c-41 -77 -149 -229 -226 -318 -127 -147 -245
-246 -426 -358 -85 -52 -282 -145 -356 -167 -27 -8 -29 -13 41 91 99 146 198
375 264 612 19 70 37 135 40 145 5 16 30 17 340 17 l335 0 -12 -22z"/>
<path d="M14320 8980 l0 -90 30 0 30 0 0 -1037 0 -1038 -345 -345 -345 -345 0
-1823 0 -1822 -30 0 -30 0 0 -90 0 -90 95 0 95 0 0 90 c0 89 0 90 -25 90 l-25
0 0 1803 0 1802 345 345 345 345 0 1057 0 1058 25 0 c25 0 25 1 25 90 l0 90
-95 0 -95 0 0 -90z"/>
<path d="M4310 8410 l0 -90 30 0 30 0 0 -1803 0 -1802 -345 -345 -345 -345 -2
-1055 -3 -1055 -27 -3 -28 -3 0 -89 0 -88 73 -4 c124 -5 117 -11 117 93 0 88
0 89 -25 89 l-25 0 0 1040 0 1041 345 344 345 344 0 1821 0 1820 30 0 30 0 0
90 0 90 -100 0 -100 0 0 -90z"/>
<path d="M3740 6720 l0 -90 30 0 30 0 -2 -907 -3 -908 -27 -3 -28 -3 0 -90 0
-89 95 0 95 0 0 90 c0 89 0 90 -25 90 l-25 0 0 910 0 910 25 0 c25 0 25 1 25
90 l0 90 -95 0 -95 0 0 -90z"/>
<path d="M14200 6080 l0 -90 30 0 30 0 0 -910 0 -910 -30 0 -30 0 0 -90 0 -90
100 0 100 0 0 90 0 90 -30 0 -30 0 0 910 0 910 30 0 30 0 0 90 0 90 -100 0
-100 0 0 -90z"/>
<path d="M4310 3281 l0 -90 28 -3 27 -3 3 -1147 2 -1148 -30 0 -30 0 0 -95 0
-95 100 0 100 0 0 25 0 25 1145 0 1145 0 0 -25 c0 -25 0 -25 95 -25 l95 0 0
95 0 95 -95 0 -95 0 0 -30 0 -30 -1145 0 -1145 0 0 30 c0 27 -3 30 -30 30
l-30 0 2 1148 3 1147 28 3 27 3 0 90 0 89 -100 0 -100 0 0 -89z"/>
<path d="M11938 863 l-3 -28 -1820 -3 -1820 -2 -345 -345 -345 -345 -1037 0
-1038 0 0 30 0 30 -95 0 -95 0 0 -97 0 -98 95 3 c93 3 95 4 95 28 l0 24 1053
0 1052 0 345 345 345 344 1808 1 1807 0 0 -25 c0 -25 1 -25 90 -25 l90 0 0 95
0 95 -89 0 -90 0 -3 -27z"/>
<path d="M8240 226 l0 -95 85 -3 c102 -4 105 -3 105 28 l0 24 910 0 910 0 0
-25 c0 -25 1 -25 90 -25 l90 0 0 95 0 95 -89 0 -90 0 -3 -27 -3 -28 -907 -3
-908 -2 0 30 0 30 -95 0 -95 0 0 -94z"/>
</g>
</svg>
